<?xml version="1.0" encoding="UTF-8"?>
<svg xmlns="http://www.w3.org/2000/svg" xmlns:xlink="http://www.w3.org/1999/xlink" width="1402pt" height="1402pt" viewBox="0 0 1402 1402" version="1.1">
<g id="surface1">
<path style=" stroke:none;fill-rule:evenodd;fill:#3f50b5;fill-opacity:1;" d="M 1281.378906 678.109375 C 1272.261719 681.609375 779.890625 678.695313 779.890625 678.695313 C 779.890625 678.695313 1129.769531 346.019531 1169.929688 351.261719 C 1210.101563 356.5 1256 428.660156 1283.371094 494.328125 C 1310.761719 559.996094 1303.28125 641.429688 1297.808594 658.902344 C 1292.339844 676.367188 1281.378906 678.109375 1281.378906 678.109375 "/>
<path style=" stroke:none;fill-rule:evenodd;fill:#3f50b5;fill-opacity:1;" d="M 736.140625 646.578125 C 736.140625 646.578125 725.789063 113.96875 766.953125 109.96875 C 809.292969 93.601563 918.199219 124.550781 1000.390625 167.550781 C 1078.691406 208.539063 1129.671875 246.058594 1122.359375 289.738281 C 1115.050781 333.449219 736.140625 646.578125 736.140625 646.578125 "/>
<path style=" stroke:none;fill-rule:evenodd;fill:rgb(100%,72.068787%,0%);fill-opacity:1;" d="M 624.851563 673.835938 C 624.851563 673.835938 288.417969 359.160156 239.324219 352.589844 C 195 344.230469 149.390625 427.015625 123.777344 498.898438 C 96.65625 574.84375 84.128906 645.679688 133.5625 667.128906 C 192.285156 690.519531 624.851563 673.835938 624.851563 673.835938 "/>
<path style=" stroke:none;fill-rule:evenodd;fill:rgb(100%,72.068787%,0%);fill-opacity:1;" d="M 677.082031 646.578125 C 677.082031 646.578125 694.792969 143.601563 672.320313 113.269531 C 630.308594 56.460938 258.722656 193.550781 294.941406 289.71875 C 323.269531 364.871094 677.082031 646.578125 677.082031 646.578125 "/>
<path style=" stroke:none;fill-rule:evenodd;fill:rgb(100%,72.068787%,0%);fill-opacity:1;" d="M 121.621094 724.914063 C 130.742188 721.410156 624.851563 731.023438 624.851563 731.023438 C 624.851563 731.023438 273.21875 1057.011719 233.066406 1051.761719 C 192.894531 1046.519531 147 974.339844 119.621094 908.691406 C 92.234375 843.003906 99.703125 761.601563 105.191406 744.097656 C 110.660156 726.644531 121.621094 724.914063 121.621094 724.914063 "/>
<path style=" stroke:none;fill-rule:evenodd;fill:rgb(100%,72.068787%,0%);fill-opacity:1;" d="M 668.6875 756.421875 C 668.6875 756.421875 677.210938 1289.011719 636.046875 1293.03125 C 593.707031 1309.390625 484.777344 1278.449219 402.609375 1235.429688 C 324.304688 1194.460938 273.335938 1156.941406 280.621094 1113.238281 C 287.945313 1069.550781 668.6875 756.421875 668.6875 756.421875 "/>
<path style=" stroke:none;fill-rule:evenodd;fill:rgb(100%,72.068787%,0%);fill-opacity:1;" d="M 779.890625 725.488281 C 779.890625 725.488281 1114.578125 1043.808594 1163.671875 1050.390625 C 1208 1058.769531 1253.609375 975.980469 1279.21875 904.078125 C 1306.328125 828.15625 1318.871094 757.320313 1269.421875 735.871094 C 1210.730469 712.492188 779.890625 725.488281 779.890625 725.488281 "/>
<path style=" stroke:none;fill-rule:evenodd;fill:rgb(100%,72.068787%,0%);fill-opacity:1;" d="M 734.976563 756.421875 C 734.976563 756.421875 708.207031 1259.378906 730.691406 1289.710938 C 772.699219 1346.511719 1144.28125 1209.429688 1108.070313 1113.28125 C 1079.738281 1038.128906 734.976563 756.421875 734.976563 756.421875 "/>
</g>
</svg>
